<svg width="32" height="32" viewBox="0 0 32 32" fill="none" xmlns="http://www.w3.org/2000/svg">
<path fill-rule="evenodd" clip-rule="evenodd" d="M16.0007 3.5386C20.0593 3.5386 20.5399 3.55411 22.1429 3.62723C23.6249 3.69487 24.4296 3.94243 24.9653 4.15059C25.6255 4.39426 26.2227 4.7828 26.713 5.28763C27.2178 5.77793 27.6064 6.37513 27.85 7.03534C28.0582 7.57095 28.3058 8.37578 28.3734 9.85776C28.4465 11.4606 28.462 11.9413 28.462 16C28.462 20.0587 28.4465 20.5393 28.3734 22.1423C28.3057 23.6243 28.0581 24.429 27.85 24.9647C27.5971 25.6202 27.2098 26.2156 26.713 26.7124C26.2162 27.2092 25.6208 27.5966 24.9653 27.8494C24.4297 28.0576 23.6249 28.3052 22.1429 28.3728C20.5404 28.4459 20.0597 28.4614 16.0007 28.4614C11.9417 28.4614 11.4612 28.4459 9.85849 28.3728C8.37651 28.3052 7.57175 28.0575 7.03609 27.8494C6.37588 27.6058 5.77868 27.2172 5.28839 26.7124C4.78356 26.2221 4.39503 25.6249 4.15136 24.9647C3.9432 24.4291 3.69558 23.6243 3.62801 22.1423C3.55488 20.5395 3.53937 20.0587 3.53937 16C3.53937 11.9413 3.55488 11.4607 3.62801 9.85776C3.69564 8.37578 3.9432 7.57101 4.15136 7.03534C4.39506 6.3751 4.78363 5.77787 5.28851 5.28757C5.77881 4.78274 6.37601 4.3942 7.03621 4.15053C7.57181 3.94237 8.37663 3.69475 9.85861 3.62717C11.4614 3.55404 11.9421 3.53854 16.0008 3.53854L16.0007 3.5386ZM16.0007 0.799805C11.8727 0.799805 11.3549 0.817303 9.73395 0.891275C8.11604 0.965127 7.01117 1.22204 6.04434 1.59782C5.03013 1.97948 4.11138 2.57779 3.35215 3.35101C2.57876 4.1102 1.98029 5.02896 1.59848 6.04323C1.22301 7.01012 0.966102 8.115 0.892552 9.73293C0.818279 11.3539 0.800781 11.8717 0.800781 15.9998C0.800781 20.1279 0.818279 20.6457 0.892552 22.2667C0.966404 23.8847 1.22331 24.9895 1.59909 25.9564C1.98075 26.9706 2.57905 27.8894 3.35227 28.6486C4.1115 29.4218 5.03025 30.0201 6.04446 30.4018C7.01135 30.7776 8.11622 31.0345 9.73407 31.1083C11.3553 31.1823 11.8729 31.1998 16.0009 31.1998C20.1289 31.1998 20.6468 31.1823 22.2678 31.1083C23.8857 31.0345 24.9906 30.7776 25.9574 30.4018C26.9671 30.0113 27.8841 29.4141 28.6496 28.6486C29.4151 27.8831 30.0123 26.9661 30.4028 25.9564C30.7786 24.9895 31.0355 23.8846 31.1093 22.2667C31.1833 20.6455 31.2008 20.1279 31.2008 15.9998C31.2008 11.8718 31.1833 11.3539 31.1093 9.73293C31.0355 8.115 30.7786 7.01012 30.4028 6.04329C30.0211 5.02907 29.4228 4.1103 28.6496 3.35107C27.8904 2.57769 26.9715 1.97926 25.9572 1.59751C24.9903 1.22204 23.8855 0.965127 22.2676 0.891576C20.6466 0.817302 20.1288 0.799805 16.0007 0.799805ZM16.0006 8.19433C14.4568 8.19433 12.9478 8.65211 11.6642 9.50978C10.3806 10.3675 9.38015 11.5865 8.78938 13.0127C8.19861 14.439 8.04404 16.0084 8.34521 17.5225C8.64639 19.0366 9.38977 20.4274 10.4814 21.519C11.573 22.6106 12.9638 23.354 14.4779 23.6552C15.9919 23.9564 17.5613 23.8018 18.9876 23.211C20.4138 22.6203 21.6329 21.6198 22.4905 20.3362C23.3482 19.0526 23.806 17.5435 23.806 15.9998C23.806 13.9296 22.9836 11.9443 21.5198 10.4805C20.056 9.01668 18.0707 8.19433 16.0006 8.19433ZM16.0006 21.0664C14.9985 21.0664 14.019 20.7692 13.1858 20.2125C12.3526 19.6557 11.7032 18.8644 11.3197 17.9386C10.9363 17.0128 10.8359 15.9941 11.0314 15.0113C11.2269 14.0284 11.7095 13.1257 12.4181 12.4171C13.1266 11.7085 14.0294 11.226 15.0122 11.0305C15.9951 10.835 17.0138 10.9353 17.9396 11.3188C18.8654 11.7023 19.6567 12.3517 20.2134 13.1849C20.7701 14.0181 21.0673 14.9977 21.0673 15.9998C21.0672 17.3435 20.5334 18.6322 19.5833 19.5824C18.6331 20.5326 17.3444 21.0664 16.0006 21.0664ZM25.9385 7.88604C25.9385 8.89339 25.1218 9.71002 24.1145 9.71002C23.1072 9.71002 22.2905 8.89339 22.2905 7.88604C22.2905 6.87868 23.1072 6.06206 24.1145 6.06206C25.1218 6.06206 25.9385 6.87868 25.9385 7.88604Z" fill="url(#paint0_radial_162_312)"/>
<defs>
<radialGradient id="paint0_radial_162_312" cx="0" cy="0" r="1" gradientUnits="userSpaceOnUse" gradientTransform="translate(10.6808 35.5698) rotate(-70.5462) scale(43.9278 43.8561)">
<stop stop-color="#FFD87B"/>
<stop offset="0.246305" stop-color="#F3A85C"/>
<stop offset="0.37931" stop-color="#F16449"/>
<stop offset="0.388642" stop-color="#F16449"/>
<stop offset="0.699507" stop-color="#C53F8B"/>
<stop offset="0.707834" stop-color="#C53F8B"/>
<stop offset="0.985222" stop-color="#6472B5"/>
<stop offset="1" stop-color="#6472B5"/>
</radialGradient>
</defs>
</svg>
